<?xml version="1.0" encoding="utf-8"?>
<!-- Generator: Adobe Illustrator 19.0.0, SVG Export Plug-In . SVG Version: 6.00 Build 0)  -->
<svg version="1.1" id="Layer_1" xmlns="http://www.w3.org/2000/svg" xmlns:xlink="http://www.w3.org/1999/xlink" x="0px" y="0px"
	 viewBox="150.4 286 299.2 236" style="enable-background:new 150.4 286 299.2 236;" xml:space="preserve">
<style type="text/css">
	.st0{fill:#01147B;}
	.st1{fill:url(#SVGID_1_);}
</style>
<title>disneyplus-hotstar-logo-freelogovectors.net</title>
<g>
	<path class="st0" d="M375.6,383.8c0.1,1.7-0.2,3.4-1,4.9c-1.4,2.5-2.7,4.9-4.1,7.4c-1.3,2.2-2.1,4.6-2.4,7.2
		c-0.2,0.7-0.1,1.5,0.2,2.2c1.8-2.7,3.6-5.4,5.6-7.9c2.3-3,4.9-5.7,7.7-8.1c1.5-1.3,3.3-2.4,5.3-3c2.5-0.9,5.3,0.2,6.5,2.5
		c1.3,2.1,1.7,4.5,1.8,6.9c0.3,8.8-5.9,18.5-14.1,22c-2.4,1-5,1.4-7.5,1c-0.8-0.1-1.1,0.1-1.4,0.8c-3.6,8.6-6,17.6-7.2,26.8
		c-0.3,2.3-1.5,2.9-3.4,1.5c-3-2-4.8-5.4-4.8-9c-0.2-4.9,1.1-9.6,2.6-14.2c1.2-3.7,2.6-7.3,4.3-10.8c0.3-0.4,0.4-1,0.2-1.5
		c-2.3-4.3-2.2-8.9-0.8-13.4c1.9-6,5.5-11.3,10.2-15.5c0.2-0.2,0.5-0.4,0.8-0.6C375,382.7,375.6,382.8,375.6,383.8z M174.5,346.2
		c15,0.4,28.8,5.1,42,11.9c8.8,4.5,16.8,10.5,23.6,17.7c3.6,3.8,6.5,8.1,8.6,12.9c3.6,8,2.6,15.5-2.3,22.6c-4,5.8-9.7,9.1-16.1,11.2
		c-10.2,3.4-20.6,3.6-31,1.2c-1-0.2-1.2,0-1.2,0.9c-0.2,2.9-1,3.7-3.3,4c-2.8,0.3-4.5-0.8-5.1-3.4c-0.3-1.4-0.5-2.8-0.6-4.2
		c0-0.8-0.5-1.5-1.2-1.8c-6.8-3.1-12.9-7.5-18.1-13c-1.1-1.1-2-2.4-2.8-3.7c-2-3.5-1.4-6.6,1.7-9.1c2.1-1.6,4.4-2.9,6.8-3.7
		c4-1.6,8.1-2.7,12.3-3.3c1-0.1,1.4-0.5,1.4-1.6c0-4.7,0.5-9.5,1.5-14.1c0.1-0.6,0.3-1.2,0.5-1.8c0.5-1.2,1.2-1.4,2.3-0.6
		c1,0.8,1.8,2,2.2,3.2c1.5,3.9,1.7,7.9,1.9,12c0.1,1.7,0.1,1.7,1.7,1.7c6.9-0.2,13.8,0.9,20.3,3.2c2.6,0.8,4.9,2.4,6.5,4.6
		c2.2,2.9,2.2,6.1-0.1,8.8c-2.8,3.2-5.7,3.3-9,2.2c-0.3-0.1-0.7-0.3-0.7-0.8c0-0.5,0.3-0.6,0.6-0.8c1-0.5,1.9-1,2.7-1.7
		c1.4-1.3,1.2-2.5-0.5-3.3c-2.3-1-4.8-1.7-7.3-2.1c-4.3-0.9-8.7-1.5-13.1-1.7c-0.9,0-1.2,0.1-1.2,1.1c0.2,6.9,0.3,13.9,0.5,20.8
		c0,0.5-0.1,1,0.7,1.1c10.3,1.7,20.5,1.6,30.3-2.6c3.9-1.7,7.4-4,9.6-7.7c3.1-5.2,3-10.5,0.6-16c-3.4-7.5-8.8-13.2-15.2-18.1
		c-12.7-9.6-27.1-15.3-42.8-18c-7.2-1.3-14.6-1.6-21.8-0.7c-1.9,0.2-3.8,0.7-5.6,1.5c0.8,0.3,1.6,0.5,2.4,0.5c0.7,0,1.3,0.2,1.9,0.6
		c0.5,0.3,0.8,0.8,0.7,1.3c-0.1,0.5-0.5,0.8-1,0.9c-2.1,0.5-4.3,0.3-6.3-0.6c-1.2-0.6-1.3-1.7-1-2.8c0.9-3.2,3.4-5.7,6.6-6.5
		C162.8,346.9,168.7,346.1,174.5,346.2z M356.4,384c2-0.1,4,0.9,5.1,2.6c0.5,0.7,1,1.5,1.4,2.3c0.8,1.6,0.4,2.4-1.3,2.8
		c-3,0.5-6,0.8-9,1c-1.6,0.1-3.1,0.2-4.7,0.3c-0.6,0-0.9,0.2-1.1,0.8c-0.2,0.9-0.5,1.7-0.8,2.6c-0.3,0.8-0.1,1,0.7,0.9
		c2.7-0.2,5.3-0.2,8,0c1.4,0.1,1.9,0.5,1.8,1.9c0,3.7,0,3.9-3.5,4.1c-2.9,0.1-5.8,0.3-8.7,0.4c-0.7-0.1-1.4,0.4-1.5,1.1
		c0,0,0,0.1,0,0.1c-0.4,1.5-0.8,3-1.3,4.4c-0.3,1,0,1.2,0.9,1c3.9-0.8,7.9-1.5,11.9-2c1.2-0.2,2.4,0.2,3.1,1.2
		c1.4,1.5,1.4,3.1-0.2,4.5c-3,2.6-6.5,4.7-10.2,6c-1.3,0.4-2.7,0.8-4.1,1.1c-5.3,1.3-10.4-4-9.7-9.5c0.2-2.1,0.7-4.3,1.5-6.3
		c0.4-0.8,0.4-1.8,0.1-2.6c-0.2-0.6-0.4-1.2-0.4-1.8c-0.2-1.9,0.2-2.6,2.2-2.8c0.7,0,1.3-0.5,1.5-1.2c0.6-1.4,1.3-2.7,1.9-4
		c0-0.1,0-0.2,0-0.3c-2.3-0.2-4.1-1-5.3-3.1c-1-1.7-0.8-2.5,1.1-2.9c4.1-1,8.3-1.6,12.5-2C351.1,384.2,353.7,384.1,356.4,384z
		 M427.5,375.6c1,5.6,1.7,11.2,2.1,16.8c0.1,1,0.3,1.3,1.4,1.3c5.4-0.1,10.9,0,16.3,0c0.9-0.1,1.7,0.3,2.3,0.9v5
		c-0.5,0.7-1.4,1.1-2.3,1c-5.4,0-10.8,0-16.2,0c-0.9,0-1.2,0.3-1.1,1.2c0.1,5.3-0.1,10.5-0.6,15.8c-0.2,1.9-0.5,2.3-2.5,2.3
		c-0.9,0-1.7,0-2.6,0c-1.4,0-1.9-0.6-1.8-2c0.5-5.3,0.8-10.7,0.8-16c0-1-0.3-1.2-1.3-1.2c-5.3,0-10.5,0-15.8,0
		c-1.9,0-2.3-0.4-2.3-2.3c0-0.8,0-1.7,0-2.5c0-1.6,0.5-2,2-2c5.2,0,10.5,0,15.7,0c1.1,0,1.5-0.3,1.4-1.4c-0.4-5.3-1.1-10.7-2.1-15.9
		c-0.4-1.8,0-2.3,1.8-2.3c1,0,1.9,0,2.9,0c0.9-0.2,1.9,0.4,2,1.4C427.5,375.5,427.5,375.6,427.5,375.6L427.5,375.6z M258.6,385.3
		c1.4,0.7,2,1.9,2.3,3.4c0.8,3.5,1,7.1,1.2,10.6c0.2,2.6,0.3,5.2,0.4,7.8c0.1,2.9,0.3,5.9,0.1,8.8c-0.1,2.2-0.9,3.4-2.5,3.6
		c-2.7,0.4-4.5-0.6-5.2-2.7c-0.4-1.5-0.7-3.1-0.6-4.7c-0.3-7.6-0.2-15.2,1.1-22.7c0.2-1.2,0.6-2.4,1.1-3.5c0.3-0.7,1.1-1.1,1.8-0.8
		C258.4,385.2,258.5,385.2,258.6,385.3L258.6,385.3z M286.7,383.6c3.9,0,7.6,0.3,11.2,1.8c0.9,0.4,2.1,0.5,2.1,1.8
		c0,1.2-0.8,2.3-1.9,2.8c-1.6,0.8-3.4,0.9-5.2,1c-4.7,0.4-9.4,0.3-14.1,0.8c-2.2,0.2-4.4,0.6-6.6,1.2c-0.4,0.1-1,0.2-1,0.7
		c0,0.6,0.6,0.7,1.1,0.8c3.1,0.6,6.3,0.8,9.5,1.2c3.5,0.4,7,1,10.4,1.7c8.2,2,8.5,12.6,4.3,16.7c-2.3,2.2-5.2,3.6-8.3,4.1
		c-6.3,1.3-12.9-0.2-18-4.1c-1.5-1-2.7-2.5-3.4-4.2c-1-2.6,0.1-5.3,2.7-6.8c1.9-1,4.1-1.5,6.2-1.4c4.4,0,8.7,0.9,12.7,2.6
		c0.6,0.3,1.4,0.6,1.4,1.4c0,0.8-0.6,1.2-1.3,1.5c-3,1.5-6,2.1-9.2,0.7c-1.8-0.9-3.7-1.6-5.6-2.1c-0.9-0.2-1.9-0.1-2.8,0.2
		c-0.8,0.3-1.3,0.9-1.4,1.8c0,0.7,0.5,1.4,1.1,1.7c1.3,0.8,2.8,1.2,4.4,1.3c5.3,0.3,10.5-0.3,15.4-2.7c0.4-0.2,0.8-0.4,1.2-0.7
		c0.9-0.6,1.9-1.1,1.8-2.4c-0.1-1.3-1.2-1.8-2.2-2.2c-3-1.3-6.2-1.7-9.4-2.1c-4.1-0.5-8.2-0.6-12.3-1.2c-4.2-0.7-5.7-3.2-4.4-7.3
		c0.7-2.1,2.2-3.9,4.1-5c3.2-2,6.9-2.9,10.6-3.4C282.1,383.8,284.4,383.6,286.7,383.6L286.7,383.6z M321.6,379.3
		c1.2,0.7,2.2,1.6,3.1,2.6c3.3,3.6,5.1,8,6,12.8c1.1,5.8,1.1,11.5-0.8,17.2c-0.3,0.9-0.8,1.7-1.4,2.5c-2.3,2.7-5.6,2.9-8,0.3
		c-2.4-2.6-4.2-5.7-5.9-8.8c-1.2-2.2-2.4-4.5-3.6-6.7c-0.2-0.3-0.3-0.8-0.7-0.7s-0.4,0.6-0.4,0.9c-0.3,2.7-0.5,5.5-0.5,8.2
		c0,2.7-0.2,5.4-0.7,8c-0.4,1.8-1.4,2.7-2.9,2.8c-1.5,0.1-2.9-0.9-3.4-2.4c-0.9-2.3-0.7-4.7-0.8-7.1c0.1-5.9,0.9-11.7,2.6-17.3
		c0.3-1.3,0.9-2.5,1.6-3.6c1.4-2.1,3-2.3,4.8-0.5c3,3.1,5.3,6.7,7.6,10.3c1.5,2.4,2.9,4.7,4.4,7c0.3,0.4,0.5,1,1.1,0.8
		c0.6-0.1,0.4-0.8,0.4-1.3c-0.1-3.8-1-7.4-1.9-11c-0.8-3.5-1.8-7-2.7-10.5c-0.3-0.9-0.4-1.8-0.3-2.7
		C319.6,378.9,320.4,378.6,321.6,379.3L321.6,379.3z M187.9,394c-2.7,0.2-5.5,0.4-8.2,0.9c-3.3,0.6-6.7,1.1-9.8,2.6
		c-2.2,1-2.4,2.1-0.8,4c0.3,0.4,0.6,0.7,1,1.1c3.1,3.3,6.9,5.7,10.8,7.9c2.4,1.4,5,2.5,7.7,3.4c0.1-0.1,0.1-0.1,0.1-0.2
		c0-6.3,0-12.7,0-19C188.7,394,188.4,394,187.9,394L187.9,394z M387.6,394.6l-5.6,6.8c-2.1,2.8-3.9,5.8-5.5,8.8
		c1.8-0.2,3.5-0.7,5.1-1.4c5.4-2.6,8.7-6.7,9.3-12.8c0.1-1,0.3-2.3-0.9-2.8S388.3,394,387.6,394.6L387.6,394.6z M266.4,352.7
		c2.5-0.1,4.9,1,6.5,2.9c0.3,0.4,0.8,0.6,1.3,0.6c4.6,1,6.8,4.9,5.2,9.4c-0.4,1.3-1.1,2.4-1.9,3.4c-4.2,4.7-9.1,8.3-15.4,9.7
		c-2.4,0.5-5,0.4-7.4-0.3c-0.6-0.2-1-0.1-1.2,0.5l-0.1,0.1c-0.5,0.9-1,2.1-2.3,1.9c-1.3-0.2-1.8-1.3-2.2-2.3
		c-0.2-0.4-0.3-0.9-0.3-1.4c0.2-1.8-0.6-3.2-1.5-4.6c-0.7-1.3-1.1-2.7-1.1-4.2c0-2,0.6-3.9,1.7-5.5
		C252.2,356.5,258.3,352.9,266.4,352.7z M271.3,360.7c-1.3,0.2-2.5,0.7-3.6,1.4c-2.7,1.7-5.1,3.8-7.3,6.1c-1.1,1.2-2.1,2.5-3,3.8
		c-0.4,0.5-0.3,0.7,0.3,0.7h2.2c4.4,0.1,8.7-1.4,12.2-4.3c1.3-0.9,2.3-2.2,2.8-3.7C275.8,362.2,274,360.2,271.3,360.7L271.3,360.7z
		 M260.1,360.1c-3.5-0.1-8.7,3.9-9.4,7.1c-0.3,0.9-0.1,1.9,0.6,2.7C253.6,366.2,256.6,362.9,260.1,360.1z"/>
	
		<radialGradient id="SVGID_1_" cx="115.2025" cy="311.8228" r="11.0297" gradientTransform="matrix(19.25 0 0 19.25 -1795.55 -5635.9292)" gradientUnits="userSpaceOnUse">
		<stop  offset="0" style="stop-color:#01147B"/>
		<stop  offset="3.000000e-002" style="stop-color:#011098"/>
		<stop  offset="6.000000e-002" style="stop-color:#010ABD"/>
		<stop  offset="0.1" style="stop-color:#0006DA"/>
		<stop  offset="0.14" style="stop-color:#0003EE"/>
		<stop  offset="0.18" style="stop-color:#0001FB"/>
		<stop  offset="0.22" style="stop-color:#0000FF"/>
		<stop  offset="1" style="stop-color:#00FFFF;stop-opacity:0"/>
	</radialGradient>
	<path class="st1" d="M307.2,286c-3.4,0-6.8,0.2-10.1,0.6c-7.5,1-14.9,2-22.3,4c-7.5,2-14.7,4.7-21.7,8.1
		c-14.4,6.9-27.4,16.5-38.2,28.3c-4.3,4.8-8.3,9.9-11.9,15.3c-0.8,1.2-0.5,2.1,0.9,2.6c0.8,0.3,1.6,0.6,2.5,0.8c1.5,0.5,2,0.3,2.9-1
		c2.1-3,4.2-6.1,6.6-8.8c2.7-2.9,5.3-5.8,8-8.8c3.1-2.9,6.3-5.7,9.6-8.3c45.4-36,110-34.5,153.6,3.6c11.4,10.1,20.8,22.2,27.7,35.8
		c0.8,1.6,1.6,3.2,2.3,4.8c1.8,4,1.1,4,4.7,3.9c0.4,0,0.9,0,1.4,0c1.3,0,2.3-0.6,1.8-2c-2.5-7.2-6.6-14.1-10.7-20.6
		c-4.2-6.5-9-12.7-14.4-18.3l-0.3-0.3c-8.4-8.9-18.1-16.6-28.7-22.7c-4.2-2.5-8.7-4.7-13.2-6.6c-3.6-1.7-7.3-3.1-11.1-4.2
		c-7.9-2.6-16.1-4.3-24.4-5.3c-4.9-0.6-9.8-0.9-14.7-0.9L307.2,286z"/>
	<path class="st0" d="M383.5,470c7.2,0,13.3,2.7,17.1,8.3h0.2v-7h9.3v49.4h-9.3v-7.7h-0.2c-3.5,5.9-9.7,8.9-16.8,8.9
		c-14.4,0-26.2-10.9-26.2-25.2C357.6,481.1,368.9,470,383.5,470z M236,470c13.6,0,26.5,10.7,26.3,26.4c-0.2,13.5-11.7,26.1-28,25.6
		c-13.8-0.4-25.5-12.3-25.4-26.1C209.2,481,221,470,236,470L236,470z M310.7,470c8.2,0,14.9,5.7,15.2,14.4h-9.3
		c-0.4-3.6-2.5-6-6.3-6c-3.6,0-5.8,2.4-5.8,5.3c0,4.2,4.3,5.4,9.2,7c7,2.1,13.4,6.3,13.4,15.5c0,9.5-7,15.8-16.6,15.8
		c-8.9,0-17.5-6.1-17.5-17.5h9.3c0.4,6,3.5,9,8.4,9c4.3,0,7.1-2.8,7.1-6.8c0-3.4-2.6-5.6-8.4-7.5c-12.1-3.9-14.2-9.1-14.2-14.7
		C295.2,475.8,302.6,470,310.7,470L310.7,470z M156.6,454.8c5.1,0,9.3,4.2,9.3,9.3l0,0v12.6h0.2c2.9-4.4,7.7-6.6,13.8-6.6
		c11.8,0,20.6,7.5,20.6,21v29.7h-9.2v-26.8c0-10.6-4.1-15.4-12.3-15.4s-13,5.9-13,15.5v26.7h-9.3V454.8z M282.1,454.8v16.6h8.1v8.5
		h-8.1v40.9c-5.1,0-9.3-4.2-9.3-9.3v-31.7H269v-8.5h3.9v-16.6H282.1z M346.5,454.8v16.6h8.1v8.5h-8.1v40.9c-5.1,0-9.3-4.2-9.3-9.3
		v-31.7h-3.9v-8.5h3.9v-16.6H346.5z M443.4,470v9.5c-8,0.3-12.1,5.1-12.1,13.5v18.5c0,5.1-4.1,9.3-9.3,9.3c0,0,0,0,0,0v-49.4h8.7
		v4.5h0.2C433.1,472.5,436.9,470.4,443.4,470z M383.7,478.5c-9.8,0-17.7,8.8-16.8,19.3c0.7,8.6,7.8,15.6,16.4,15.7
		c9.8,0.2,17.6-7.9,17.6-17.4C401,486.5,394,478.5,383.7,478.5z M235.6,478.5c-9.7,0.1-17.4,8.1-17.3,17.8c0,1.3,0.2,2.7,0.5,4
		c1.9,7.8,9.1,13.4,17.1,13.2c9.7-0.3,17.3-8.3,17.1-18C252.7,486.1,245,478.5,235.6,478.5L235.6,478.5z"/>
</g>
</svg>
